<svg width="75" height="15" viewBox="0 0 75 15" fill="none" xmlns="http://www.w3.org/2000/svg">
<path d="M7.21468 0.878116C7.30449 0.601722 7.69551 0.601722 7.78532 0.878115L9.1165 4.97508C9.15666 5.09868 9.27185 5.18237 9.40182 5.18237H13.7096C14.0002 5.18237 14.1211 5.55426 13.886 5.72508L10.4009 8.25714C10.2957 8.33353 10.2517 8.46894 10.2919 8.59255L11.6231 12.6895C11.7129 12.9659 11.3965 13.1957 11.1614 13.0249L7.67634 10.4929C7.57119 10.4165 7.42881 10.4165 7.32366 10.4929L3.83858 13.0249C3.60347 13.1957 3.28712 12.9659 3.37693 12.6895L4.70811 8.59255C4.74827 8.46894 4.70428 8.33353 4.59913 8.25714L1.11405 5.72508C0.878932 5.55426 0.999764 5.18237 1.29038 5.18237H5.59818C5.72815 5.18237 5.84334 5.09868 5.8835 4.97508L7.21468 0.878116Z" fill="#13BD48"/>
<path d="M67.2147 0.878116C67.3045 0.601722 67.6955 0.601722 67.7853 0.878115L69.1165 4.97508C69.1567 5.09868 69.2718 5.18237 69.4018 5.18237H73.7096C74.0002 5.18237 74.1211 5.55426 73.886 5.72508L70.4009 8.25714C70.2957 8.33353 70.2517 8.46894 70.2919 8.59255L71.6231 12.6895C71.7129 12.9659 71.3965 13.1957 71.1614 13.0249L67.6763 10.4929C67.5712 10.4165 67.4288 10.4165 67.3237 10.4929L63.8386 13.0249C63.6035 13.1957 63.2871 12.9659 63.3769 12.6895L64.7081 8.59255C64.7483 8.46894 64.7043 8.33353 64.5991 8.25714L61.114 5.72508C60.8789 5.55426 60.9998 5.18237 61.2904 5.18237H65.5982C65.7281 5.18237 65.8433 5.09868 65.8835 4.97508L67.2147 0.878116Z" fill="#13BD48"/>
<path d="M52.2147 0.878116C52.3045 0.601722 52.6955 0.601722 52.7853 0.878115L54.1165 4.97508C54.1567 5.09868 54.2718 5.18237 54.4018 5.18237H58.7096C59.0002 5.18237 59.1211 5.55426 58.886 5.72508L55.4009 8.25714C55.2957 8.33353 55.2517 8.46894 55.2919 8.59255L56.6231 12.6895C56.7129 12.9659 56.3965 13.1957 56.1614 13.0249L52.6763 10.4929C52.5712 10.4165 52.4288 10.4165 52.3237 10.4929L48.8386 13.0249C48.6035 13.1957 48.2871 12.9659 48.3769 12.6895L49.7081 8.59255C49.7483 8.46894 49.7043 8.33353 49.5991 8.25714L46.114 5.72508C45.8789 5.55426 45.9998 5.18237 46.2904 5.18237H50.5982C50.7281 5.18237 50.8433 5.09868 50.8835 4.97508L52.2147 0.878116Z" fill="#13BD48"/>
<path d="M37.2147 0.878116C37.3045 0.601722 37.6955 0.601722 37.7853 0.878115L39.1165 4.97508C39.1567 5.09868 39.2718 5.18237 39.4018 5.18237H43.7096C44.0002 5.18237 44.1211 5.55426 43.886 5.72508L40.4009 8.25714C40.2957 8.33353 40.2517 8.46894 40.2919 8.59255L41.6231 12.6895C41.7129 12.9659 41.3965 13.1957 41.1614 13.0249L37.6763 10.4929C37.5712 10.4165 37.4288 10.4165 37.3237 10.4929L33.8386 13.0249C33.6035 13.1957 33.2871 12.9659 33.3769 12.6895L34.7081 8.59255C34.7483 8.46894 34.7043 8.33353 34.5991 8.25714L31.114 5.72508C30.8789 5.55426 30.9998 5.18237 31.2904 5.18237H35.5982C35.7281 5.18237 35.8433 5.09868 35.8835 4.97508L37.2147 0.878116Z" fill="#13BD48"/>
<path d="M22.2147 0.878116C22.3045 0.601722 22.6955 0.601722 22.7853 0.878115L24.1165 4.97508C24.1567 5.09868 24.2718 5.18237 24.4018 5.18237H28.7096C29.0002 5.18237 29.1211 5.55426 28.886 5.72508L25.4009 8.25714C25.2957 8.33353 25.2517 8.46894 25.2919 8.59255L26.6231 12.6895C26.7129 12.9659 26.3965 13.1957 26.1614 13.0249L22.6763 10.4929C22.5712 10.4165 22.4288 10.4165 22.3237 10.4929L18.8386 13.0249C18.6035 13.1957 18.2871 12.9659 18.3769 12.6895L19.7081 8.59255C19.7483 8.46894 19.7043 8.33353 19.5991 8.25714L16.114 5.72508C15.8789 5.55426 15.9998 5.18237 16.2904 5.18237H20.5982C20.7281 5.18237 20.8433 5.09868 20.8835 4.97508L22.2147 0.878116Z" fill="#13BD48"/>
</svg>
